<?xml version="1.0" encoding="utf-8"?>
<!-- Generator: Adobe Illustrator 16.0.0, SVG Export Plug-In . SVG Version: 6.00 Build 0)  -->
<!DOCTYPE svg PUBLIC "-//W3C//DTD SVG 1.1//EN" "http://www.w3.org/Graphics/SVG/1.1/DTD/svg11.dtd">
<svg version="1.1" id="Layer_1" xmlns="http://www.w3.org/2000/svg" xmlns:xlink="http://www.w3.org/1999/xlink" x="0px" y="0px"
	 width="31px" height="31px" viewBox="0 0 31 31" enable-background="new 0 0 31 31" xml:space="preserve">
<g id="Arrow" transform="translate(-729 -736)">
	<path fill="#FF0000" d="M744.5,736c-8.561,0-15.5,6.939-15.5,15.5s6.939,15.5,15.5,15.5s15.5-6.939,15.5-15.5
		S753.061,736,744.5,736z M744.5,766.5c-8.284,0-15-6.716-15-15s6.716-15,15-15s15,6.716,15,15S752.784,766.5,744.5,766.5z"/>
	<path id="ic_keyboard_backspace_24px" fill="#FF0000" d="M740,752.363h7.469l-1.887,1.894l0.743,0.743l3.163-3.163l-3.163-3.163
		l-0.743,0.743l1.887,1.893H740V752.363z"/>
</g>
</svg>
