<?xml version="1.0" encoding="utf-8"?>
<!-- Generator: Adobe Illustrator 16.0.0, SVG Export Plug-In . SVG Version: 6.00 Build 0)  -->
<!DOCTYPE svg PUBLIC "-//W3C//DTD SVG 1.1//EN" "http://www.w3.org/Graphics/SVG/1.1/DTD/svg11.dtd">
<svg version="1.1" id="Layer_1" xmlns="http://www.w3.org/2000/svg" xmlns:xlink="http://www.w3.org/1999/xlink" x="0px" y="0px"
	 width="31px" height="31px" viewBox="0 0 31 31" enable-background="new 0 0 31 31" xml:space="preserve">
<path fill="#FF0000" d="M15.5,0C6.939,0,0,6.939,0,15.5S6.939,31,15.5,31S31,24.061,31,15.5S24.061,0,15.5,0z M15.5,30.5
	c-8.284,0-15-6.716-15-15s6.716-15,15-15s15,6.716,15,15S23.784,30.5,15.5,30.5z"/>
<path id="ic_keyboard_backspace_24px" fill="#FF0000" d="M20,14.636h-7.469l1.887-1.893L13.675,12l-3.163,3.163l3.163,3.163
	l0.743-0.743l-1.887-1.893H20V14.636z"/>
</svg>
