<svg xmlns="http://www.w3.org/2000/svg" width="13.124" height="13.123" viewBox="0 0 13.124 13.123">
    <defs>
        <style>
            .cls-1{fill:#b55b38}
        </style>
    </defs>
    <g id="Group_6998" data-name="Group 6998" transform="translate(-327.261 -1076.519)">
        <path id="Path_870" d="M337.993 1097.291h-8.338a2.4 2.4 0 0 1-2.394-2.394.31.31 0 0 1 .621 0 1.776 1.776 0 0 0 1.774 1.773h8.338a1.774 1.774 0 0 0 1.772-1.773.31.31 0 0 1 .62 0 2.4 2.4 0 0 1-2.393 2.394z" class="cls-1" data-name="Path 870" transform="translate(0 -7.649)"/>
        <path id="Path_871" d="M336.885 1093.678a.3.3 0 0 1-.217-.092l-2.085-2.083a.31.31 0 1 1 .438-.438l1.864 1.864 1.864-1.864a.31.31 0 0 1 .439.438l-2.083 2.083a.311.311 0 0 1-.22.092z" class="cls-1" data-name="Path 871" transform="translate(-3.061 -6.119)"/>
        <path id="Path_872" d="M338.411 1087.56a.311.311 0 0 1-.31-.311v-10.419a.31.31 0 1 1 .62 0v10.419a.311.311 0 0 1-.31.311z" class="cls-1" data-name="Path 872" transform="translate(-4.589)"/>
    </g>
</svg>
