<svg xmlns="http://www.w3.org/2000/svg" width="13.983" height="13.703" viewBox="0 0 13.983 13.703">
  <g id="Group_1456" data-name="Group 1456" transform="translate(0 0)">
    <path id="Path_867" data-name="Path 867" d="M190.294,33.661h-2.3v-2.3a.32.32,0,0,0-.32-.317h-.655a.318.318,0,0,0-.318.317v2.3h-2.3a.318.318,0,0,0-.317.319v.655a.317.317,0,0,0,.317.318h2.3v2.3a.319.319,0,0,0,.318.318h.655a.32.32,0,0,0,.32-.318v-2.3h2.3a.317.317,0,0,0,.317-.317v-.655a.317.317,0,0,0-.317-.318" transform="translate(-176.628 -26.955)" fill="#7e6e64"/>
    <path id="Path_868" data-name="Path 868" d="M174.967,29.672a2.685,2.685,0,0,1-.931-1c0-.281.024-.415.655-.906a3.018,3.018,0,0,0,1.265-2.364,3.147,3.147,0,0,0-.665-2.019h.325a.313.313,0,0,0,.186-.06l.9-.655a.317.317,0,0,0-.186-.576h-4.045a4.068,4.068,0,0,0-1.333.23,3.477,3.477,0,0,0-2.507,3.055,3.25,3.25,0,0,0,3.309,3.256,1.716,1.716,0,0,0-.057.428,1.6,1.6,0,0,0,.218.806h-.052a4.417,4.417,0,0,0-4.05,2.2,2.412,2.412,0,0,0-.243,1.031,1.927,1.927,0,0,0,.253.952,3.6,3.6,0,0,0,2.351,1.52,7.61,7.61,0,0,0,1.856.222,5.969,5.969,0,0,0,1.655-.224,3.3,3.3,0,0,0,2.643-3.009,3.133,3.133,0,0,0-1.55-2.889m-5.111,2.994c0-.951,1.209-1.786,2.586-1.786h.037a3.038,3.038,0,0,1,.867.134l.274.186c.639.435,1.06.721,1.177,1.182a1.451,1.451,0,0,1,.042.345c0,1.184-.883,1.785-2.627,1.785a2.124,2.124,0,0,1-2.355-1.846m1.252-8.989a1.06,1.06,0,0,1,.814-.376h.035a2.387,2.387,0,0,1,1.908,2.222,2.161,2.161,0,0,1-.4,1.686,1.056,1.056,0,0,1-.823.377h-.015c-.876-.026-1.751-1.063-1.906-2.259a2.087,2.087,0,0,1,.385-1.651" transform="translate(-167.759 -22.092)" fill="#7e6e64"/>
  </g>
</svg>
