<?xml version="1.0" encoding="utf-8"?>
<!-- Generator: Adobe Illustrator 16.0.0, SVG Export Plug-In . SVG Version: 6.00 Build 0)  -->
<!DOCTYPE svg PUBLIC "-//W3C//DTD SVG 1.1//EN" "http://www.w3.org/Graphics/SVG/1.1/DTD/svg11.dtd">
<svg version="1.1" id="Layer_1" xmlns="http://www.w3.org/2000/svg" xmlns:xlink="http://www.w3.org/1999/xlink" x="0px" y="0px"
	 width="70.83px" height="51.941px" viewBox="0 0 70.83 51.941" enable-background="new 0 0 70.83 51.941" xml:space="preserve">
<g id="Group_1446" transform="translate(8.465 49.424)">
	<path id="Path_857" fill="#7E6E64" d="M20.154-7.615L18.03-1.678c-0.017,0.045-0.067,0.068-0.112,0.051
		c-0.023-0.009-0.042-0.027-0.051-0.051l-2.372-5.831c-0.077-0.186-0.257-0.308-0.458-0.309h-1.58
		c-0.166,0.001-0.299,0.136-0.298,0.302c0,0.04,0.008,0.079,0.024,0.116l4.158,9.575c0.047,0.108,0.155,0.18,0.274,0.18h0.986
		c0.127,0,0.24-0.08,0.282-0.2l1.957-5.7c0.015-0.045,0.064-0.069,0.11-0.055c0.026,0.009,0.046,0.029,0.055,0.055l1.957,5.7
		c0.042,0.12,0.155,0.2,0.282,0.2h0.986c0.119,0,0.227-0.071,0.274-0.18l4.159-9.573c0.065-0.152-0.006-0.329-0.158-0.394
		c-0.036-0.017-0.076-0.024-0.115-0.024h-1.581c-0.201,0.002-0.381,0.123-0.458,0.309l-2.372,5.831
		c-0.017,0.045-0.067,0.068-0.112,0.051c-0.023-0.009-0.042-0.027-0.051-0.051l-2.124-5.937c-0.042-0.119-0.155-0.199-0.281-0.2
		h-0.974C20.31-7.813,20.197-7.734,20.154-7.615L20.154-7.615z"/>
	<path id="Path_858" fill="#7E6E64" d="M-8.067-7.813h7.7c0.221,0,0.4,0.179,0.4,0.399v1.151c0,0.221-0.179,0.4-0.4,0.4h-2.488
		c-0.121-0.001-0.219,0.097-0.22,0.218v0.001v7.608c0,0.221-0.179,0.399-0.4,0.399h-1.5c-0.221,0-0.4-0.179-0.4-0.399v-7.608
		c0-0.121-0.098-0.219-0.219-0.219h-2.473c-0.221,0-0.4-0.18-0.4-0.4v-1.151C-8.467-7.634-8.288-7.813-8.067-7.813z"/>
	<path id="Path_859" fill="#7E6E64" d="M8.329-5.743c-0.483-0.17-0.988-0.266-1.5-0.283C6.5-6.042,6.173-5.967,5.885-5.808
		C5.659-5.676,5.525-5.43,5.536-5.169c-0.007,0.348,0.188,0.668,0.5,0.821c0.493,0.251,1.012,0.449,1.547,0.589
		c0.587,0.164,1.163,0.368,1.722,0.61c0.454,0.206,0.85,0.521,1.155,0.915c0.339,0.468,0.508,1.037,0.48,1.614
		c0.015,0.6-0.166,1.189-0.516,1.678C10.061,1.541,9.569,1.91,9.005,2.123C8.352,2.375,7.656,2.498,6.956,2.486
		C6.128,2.485,5.306,2.337,4.529,2.05C3.875,1.816,3.262,1.482,2.711,1.06C2.566,0.942,2.522,0.74,2.605,0.572l0.554-1.133
		c0.099-0.197,0.339-0.278,0.537-0.18C3.722-0.727,3.747-0.71,3.77-0.692c0.425,0.324,0.89,0.593,1.383,0.8
		c0.576,0.261,1.199,0.403,1.831,0.421C7.372,0.55,7.758,0.46,8.095,0.267c0.417-0.284,0.524-0.853,0.24-1.269
		C8.303-1.049,8.266-1.093,8.226-1.133c-0.198-0.181-0.43-0.321-0.683-0.414C7.266-1.654,6.886-1.775,6.402-1.91
		C5.82-2.064,5.25-2.258,4.695-2.491C4.248-2.689,3.856-2.994,3.554-3.378C3.215-3.834,3.046-4.394,3.075-4.962
		C3.064-5.537,3.237-6.099,3.569-6.568c0.351-0.478,0.829-0.845,1.38-1.062c0.657-0.259,1.358-0.385,2.064-0.37
		c0.699,0.001,1.394,0.104,2.063,0.306c0.52,0.152,1.021,0.363,1.495,0.628c0.175,0.105,0.242,0.327,0.155,0.513l-0.552,1.186
		c-0.095,0.199-0.333,0.284-0.533,0.189C9.633-5.182,9.624-5.186,9.616-5.191C9.204-5.413,8.774-5.598,8.329-5.743L8.329-5.743z"/>
	<path id="Path_860" fill="#7E6E64" d="M37.813,2.076l-0.629-1.559c-0.033-0.081-0.113-0.135-0.2-0.134h-4.418
		c-0.088-0.001-0.167,0.053-0.2,0.134l-0.63,1.559c-0.069,0.171-0.235,0.283-0.419,0.283h-1.588c-0.173,0-0.313-0.14-0.313-0.313
		c0-0.042,0.01-0.084,0.026-0.123l4.11-9.465c0.071-0.165,0.234-0.271,0.414-0.271h1.773c0.182,0,0.345,0.108,0.416,0.274
		l4.042,9.464c0.067,0.158-0.005,0.342-0.164,0.409c-0.038,0.017-0.081,0.025-0.123,0.025h-1.678
		C38.05,2.36,37.884,2.248,37.813,2.076z M33.313-1.463h2.935c0.052,0.001,0.094-0.04,0.094-0.092
		c0.001-0.013-0.002-0.024-0.007-0.036l-1.46-3.61c-0.019-0.048-0.073-0.071-0.12-0.053c-0.024,0.01-0.043,0.028-0.053,0.053
		l-1.475,3.61c-0.019,0.048,0.004,0.102,0.052,0.121c0.012,0.005,0.024,0.008,0.037,0.007H33.313z"/>
	<path id="Path_861" fill="#7E6E64" d="M44.209-7.813h1.5c0.222,0,0.4,0.179,0.4,0.399v7.551c0,0.121,0.098,0.219,0.219,0.219h3.742
		c0.221,0,0.399,0.179,0.399,0.4v1.209c0,0.221-0.179,0.399-0.399,0.399h-5.806c-0.249,0-0.451-0.202-0.451-0.452v-9.321
		C43.811-7.63,43.988-7.811,44.209-7.813L44.209-7.813L44.209-7.813z"/>
	<path id="Path_862" fill="#7E6E64" d="M56.225-0.119c0.438,0.432,1.035,0.66,1.649,0.632c0.599,0.029,1.181-0.198,1.601-0.625
		c0.42-0.475,0.636-1.097,0.6-1.729v-5.574c0-0.221,0.18-0.399,0.4-0.399h1.5c0.221,0,0.399,0.179,0.399,0.399v5.574
		c0.021,0.807-0.167,1.605-0.545,2.318c-0.357,0.648-0.901,1.175-1.562,1.511c-0.746,0.369-1.569,0.551-2.4,0.53
		c-0.835,0.02-1.662-0.163-2.412-0.53c-0.667-0.334-1.219-0.86-1.584-1.511C53.489-0.235,53.3-1.034,53.32-1.841v-5.574
		c0-0.221,0.179-0.399,0.399-0.399h1.5c0.221,0,0.4,0.179,0.4,0.399v5.574C55.583-1.209,55.802-0.588,56.225-0.119z"/>
</g>
<path id="Path_863" fill="#7E6E64" d="M50.135,16.346c-0.479-1.187-1.829-1.759-3.015-1.279c-0.09,0.036-0.176,0.077-0.26,0.124
	c-2.043,0.85-6,2.774-9,3.729c-2.1,0.668-3.148,0.916-3.148,0.916l0.182-4.161c0,0,7.1-1.981,10.2-3.008
	c1.149-0.381,2.707-1.272,1.659-3.074C46.036,8.36,44.271,8.328,42.7,9.279c-1.7,1.027-7.56,3.605-7.56,3.605
	s0.958-2.749,1.074-3.038c0.879-2.131,1.507-4.356,1.871-6.633C38.408,1.241,37.468,0.057,35.478,0
	c-1.942-0.055-2.22,1.649-2.227,3.142c0.131,2.952,0.075,5.911-0.17,8.856c0,0-3.257-6.2-4.868-7.979
	c-0.794-0.647-1.934-0.647-2.728,0c-0.541,0.492-0.747,1.255-0.527,1.953c0.649,1.463,6.2,7.717,7.387,9.175
	c0.055,0.067,0.371,0.544,0.371,0.544l-0.262,2.06c-0.336-0.263-0.669-0.529-1-0.8c-1.9-1.538-6.773-6.214-8.422-6.7
	c-0.969-0.391-2.073,0.062-2.489,1.021c-0.235,0.662-0.104,1.4,0.347,1.939c0.694,0.903,1.533,1.685,2.482,2.314
	c2.4,1.591,4.861,3.089,7.332,4.565c0.182,0.109,0.926,0.577,1.463,0.919l-0.14,2.368l-8.473-4.439c0,0-0.154-0.073-0.4-0.165
	c-1.047-0.389-2.21,0.145-2.599,1.191c-0.308,0.829-0.041,1.761,0.657,2.303c0.345,0.259,0.707,0.492,1.085,0.699
	c0.478,0.259,0.974,0.482,1.484,0.669c1.484,0.56,5.251,1.452,8.065,2.295c-0.032,0.916-0.015,1.834,0.05,2.75
	c0.035,0.484,0.075,0.958,0.116,1.274c0.159,1.523,0.728,2.975,1.647,4.2c0.435,0.494,0.94,0.921,1.5,1.268
	c0.794,0.476,1.823,0.218,2.299-0.577c0.067-0.112,0.121-0.233,0.161-0.358c0.28-0.726-0.007-1.547-0.679-1.94
	c-0.688-0.4-1.262-0.97-1.667-1.655c-0.508-1.337-0.757-2.759-0.736-4.188l0.016-3.787c0,0,1.53-0.311,1.907-0.378
	c3.849-0.618,7.651-1.494,11.383-2.62c0.817-0.224,1.563-0.654,2.167-1.25C50.517,17.99,50.565,17.074,50.135,16.346L50.135,16.346z
	"/>
</svg>
