<svg xmlns="http://www.w3.org/2000/svg" width="70.83" height="51.941" viewBox="0 0 70.83 51.941">
    <defs>
        <style>
            .cls-1{fill:#fff}
        </style>
    </defs>
    <g id="Group_1447" data-name="Group 1447" transform="translate(-8.465 -8.002)">
        <g id="Group_1446" data-name="Group 1446" transform="translate(8.465 49.424)">
            <path id="Path_857" d="M96.829 164.783l-2.124 5.937a.087.087 0 0 1-.163 0l-2.372-5.831a.5.5 0 0 0-.458-.309h-1.58a.3.3 0 0 0-.274.418l4.158 9.575a.3.3 0 0 0 .274.18h.986a.3.3 0 0 0 .282-.2l1.957-5.7a.087.087 0 0 1 .165 0l1.957 5.7a.3.3 0 0 0 .282.2h.986a.3.3 0 0 0 .274-.18l4.159-9.573a.3.3 0 0 0-.274-.418h-1.58a.5.5 0 0 0-.458.309l-2.372 5.831a.087.087 0 0 1-.163 0l-2.124-5.937a.3.3 0 0 0-.281-.2h-.974a.3.3 0 0 0-.283.198z" class="cls-1" data-name="Path 857" transform="translate(-68.21 -164.396)"/>
            <path id="Path_858" d="M8.863 164.585h7.7a.4.4 0 0 1 .4.4v1.151a.4.4 0 0 1-.4.4h-2.488a.219.219 0 0 0-.22.219v7.608a.4.4 0 0 1-.4.4h-1.5a.4.4 0 0 1-.4-.4v-7.608a.219.219 0 0 0-.219-.219H8.863a.4.4 0 0 1-.4-.4v-1.151a.4.4 0 0 1 .4-.4z" class="cls-1" data-name="Path 858" transform="translate(-8.465 -164.396)"/>
            <path id="Path_859" d="M55.731 166.134a5.051 5.051 0 0 0-1.5-.283 1.766 1.766 0 0 0-.944.218.708.708 0 0 0-.349.639.894.894 0 0 0 .5.821 7.712 7.712 0 0 0 1.547.589 13.369 13.369 0 0 1 1.722.61 3.058 3.058 0 0 1 1.155.915 2.54 2.54 0 0 1 .48 1.614 2.764 2.764 0 0 1-.516 1.678A3.182 3.182 0 0 1 56.407 174a5.443 5.443 0 0 1-2.049.363 7 7 0 0 1-2.427-.436 6.679 6.679 0 0 1-1.818-.99.4.4 0 0 1-.106-.488l.554-1.133a.4.4 0 0 1 .611-.131 6.279 6.279 0 0 0 1.383.8 4.768 4.768 0 0 0 1.831.421 2.015 2.015 0 0 0 1.111-.262.913.913 0 0 0 .131-1.4 2.055 2.055 0 0 0-.683-.414q-.415-.16-1.141-.363a12.966 12.966 0 0 1-1.707-.581 3 3 0 0 1-1.141-.887 2.448 2.448 0 0 1-.479-1.584 2.688 2.688 0 0 1 .494-1.606 3.133 3.133 0 0 1 1.38-1.061 5.325 5.325 0 0 1 2.064-.37 7.142 7.142 0 0 1 2.063.305 7.265 7.265 0 0 1 1.495.628.4.4 0 0 1 .155.513l-.552 1.185a.4.4 0 0 1-.558.177 7.768 7.768 0 0 0-1.287-.552z" class="cls-1" data-name="Path 859" transform="translate(-38.937 -163.875)"/>
            <path id="Path_860" d="M159.41 174.474l-.63-1.559a.215.215 0 0 0-.2-.134h-4.418a.215.215 0 0 0-.2.134l-.63 1.559a.453.453 0 0 1-.419.283h-1.588a.312.312 0 0 1-.286-.436l4.11-9.464a.452.452 0 0 1 .415-.272h1.773a.452.452 0 0 1 .416.275l4.042 9.463a.312.312 0 0 1-.287.435h-1.678a.453.453 0 0 1-.42-.284zm-4.5-3.539h2.934a.093.093 0 0 0 .087-.128l-1.46-3.611a.093.093 0 0 0-.173 0l-1.474 3.611a.093.093 0 0 0 .088.128z" class="cls-1" data-name="Path 860" transform="translate(-113.131 -164.396)"/>
            <path id="Path_861" d="M205.579 164.585h1.5a.4.4 0 0 1 .4.4v7.55a.219.219 0 0 0 .219.219h3.742a.4.4 0 0 1 .4.4v1.209a.4.4 0 0 1-.4.4h-5.805a.452.452 0 0 1-.452-.452v-9.322a.4.4 0 0 1 .396-.404z" class="cls-1" data-name="Path 861" transform="translate(-152.905 -164.396)"/>
            <path id="Path_862" d="M243.847 172.279a2.2 2.2 0 0 0 1.649.632 2.1 2.1 0 0 0 1.6-.625 2.4 2.4 0 0 0 .6-1.729v-5.574a.4.4 0 0 1 .4-.4h1.5a.4.4 0 0 1 .4.4v5.574a4.7 4.7 0 0 1-.545 2.318 3.7 3.7 0 0 1-1.562 1.511 5.12 5.12 0 0 1-2.4.53 5.208 5.208 0 0 1-2.412-.53 3.728 3.728 0 0 1-1.584-1.511 4.648 4.648 0 0 1-.552-2.318v-5.574a.4.4 0 0 1 .4-.4h1.5a.4.4 0 0 1 .4.4v5.574a2.358 2.358 0 0 0 .606 1.722z" class="cls-1" data-name="Path 862" transform="translate(-179.156 -164.396)"/>
        </g>
        <path id="Path_863" d="M114.981 24.348a2.316 2.316 0 0 0-3.274-1.155c-2.044.85-6 2.775-9 3.729-2.1.668-3.149.916-3.149.916l.182-4.161s7.1-1.982 10.2-3.008c1.149-.381 2.707-1.273 1.659-3.074-.717-1.233-2.483-1.265-4.053-.314-1.7 1.027-7.56 3.606-7.56 3.606s.959-2.749 1.074-3.039a29.69 29.69 0 0 0 1.871-6.632c.323-1.973-.617-3.157-2.607-3.214-1.942-.055-2.22 1.649-2.227 3.141a69.6 69.6 0 0 1-.17 8.857s-3.257-6.2-4.868-7.979a2.159 2.159 0 0 0-2.728 0 1.879 1.879 0 0 0-.527 1.953c.649 1.463 6.2 7.717 7.387 9.175.055.068.371.544.371.544l-.262 2.06a61.35 61.35 0 0 1-1-.8c-1.9-1.538-6.773-6.214-8.422-6.7a1.927 1.927 0 0 0-2.489 1.02 1.988 1.988 0 0 0 .347 1.94 10.356 10.356 0 0 0 2.482 2.314c2.4 1.591 4.861 3.089 7.332 4.566.182.109.926.577 1.463.919l-.14 2.368-8.473-4.44s-.154-.073-.4-.165a2.022 2.022 0 0 0-1.942 3.494 9 9 0 0 0 1.085.7 11.237 11.237 0 0 0 1.484.669c1.484.559 5.251 1.452 8.065 2.294a26.007 26.007 0 0 0 .05 2.75c.035.485.075.958.116 1.275a8.459 8.459 0 0 0 1.647 4.2 6.722 6.722 0 0 0 1.5 1.268 1.676 1.676 0 0 0 2.46-.936 1.586 1.586 0 0 0-.678-1.94 4.652 4.652 0 0 1-1.667-1.656 11.318 11.318 0 0 1-.736-4.188l.016-3.787s1.53-.311 1.907-.378a87.41 87.41 0 0 0 11.383-2.62 4.939 4.939 0 0 0 2.167-1.25 2.1 2.1 0 0 0 .124-2.322z" class="cls-1" data-name="Path 863" transform="translate(-56.381)"/>
    </g>
</svg>
