<?xml version="1.0" encoding="utf-8"?>
<!-- Generator: Adobe Illustrator 16.0.0, SVG Export Plug-In . SVG Version: 6.00 Build 0)  -->
<!DOCTYPE svg PUBLIC "-//W3C//DTD SVG 1.1//EN" "http://www.w3.org/Graphics/SVG/1.1/DTD/svg11.dtd">
<svg version="1.1" id="Layer_1" xmlns="http://www.w3.org/2000/svg" xmlns:xlink="http://www.w3.org/1999/xlink" x="0px" y="0px"
	 width="20.8px" height="24.7px" viewBox="0 0 20.8 24.7" enable-background="new 0 0 20.8 24.7" xml:space="preserve">
<g id="Group_1462" transform="translate(544.661 1831.81)">
	<path id="Path_863" fill="#B65C38" d="M-524.059-1820.485c-0.33-0.82-1.262-1.218-2.081-0.889
		c-0.063,0.025-0.126,0.055-0.186,0.089c-1.415,0.588-4.149,1.921-6.226,2.58c-1.454,0.463-2.179,0.635-2.179,0.635l0.126-2.88
		c0,0,4.916-1.372,7.059-2.081c0.8-0.265,1.873-0.882,1.148-2.128c-0.5-0.854-1.719-0.875-2.806-0.219
		c-1.175,0.711-5.231,2.5-5.231,2.5s0.664-1.899,0.743-2.1c0.607-1.475,1.043-3.015,1.295-4.59c0.3-0.89-0.179-1.854-1.068-2.154
		c-0.236-0.08-0.488-0.106-0.736-0.078c-1.344-0.038-1.536,1.142-1.541,2.174c0.091,2.044,0.051,4.09-0.119,6.128
		c-0.984-1.921-2.11-3.767-3.368-5.521c-0.55-0.448-1.339-0.448-1.889,0c-0.374,0.34-0.518,0.867-0.366,1.35
		c0.448,1.013,4.291,5.34,5.111,6.35c0.038,0.047,0.257,0.377,0.257,0.377l-0.181,1.426c-0.232-0.183-0.464-0.366-0.694-0.552
		c-1.316-1.065-4.687-4.3-5.829-4.634c-0.67-0.271-1.434,0.043-1.722,0.705c-0.163,0.459-0.072,0.97,0.24,1.344
		c0.48,0.624,1.062,1.164,1.718,1.6c1.66,1.1,3.364,2.138,5.074,3.16c0.126,0.075,0.641,0.4,1.012,0.636l-0.1,1.64l-5.857-3.073
		c0,0-0.106-0.05-0.279-0.114c-0.726-0.267-1.529,0.105-1.797,0.831c-0.21,0.571-0.026,1.213,0.453,1.587
		c0.238,0.179,0.489,0.34,0.751,0.483c0.331,0.179,0.674,0.333,1.027,0.463c1.027,0.387,3.634,1,5.581,1.588
		c-0.021,0.634-0.01,1.268,0.035,1.899c0.023,0.337,0.052,0.663,0.08,0.884c0.109,1.054,0.504,2.058,1.14,2.905
		c0.302,0.342,0.651,0.638,1.039,0.877c0.55,0.328,1.263,0.147,1.59-0.402c0.046-0.077,0.083-0.159,0.11-0.245
		c0.192-0.502-0.006-1.07-0.47-1.343c-0.476-0.277-0.873-0.672-1.153-1.146c-0.352-0.926-0.524-1.91-0.509-2.899l0.011-2.621
		c0,0,1.059-0.215,1.32-0.262c2.663-0.427,5.295-1.032,7.878-1.811c0.565-0.155,1.082-0.453,1.5-0.865
		C-523.801-1819.351-523.766-1819.982-524.059-1820.485z"/>
</g>
</svg>
