<svg xmlns="http://www.w3.org/2000/svg" width="13.702" height="11.366" viewBox="0 0 13.702 11.366">
  <path id="Path_864" data-name="Path 864" d="M35.2,25.888c-.065.517-.813,1.033-1.267,1.426.446,6.6-7,10.706-12.436,7.366a6.289,6.289,0,0,0,4.118-1.266A2.926,2.926,0,0,1,23,31.434c.385-.04.927.08,1.188-.08a2.906,2.906,0,0,1-2.218-2.773c.43.045.652.3,1.187.238a3.218,3.218,0,0,1-.87-3.8,8.455,8.455,0,0,0,5.94,3.01c-.686-2.91,3.175-4.715,4.911-2.612a10.058,10.058,0,0,0,1.821-.633,3.812,3.812,0,0,1-1.188,1.505,4.326,4.326,0,0,0,1.426-.4" transform="translate(-21.5 -24.5)" fill="#7e6e64"/>
</svg>
